<svg width="25" height="24" viewBox="0 0 25 24" fill="none" xmlns="http://www.w3.org/2000/svg">
<g id="Symbol.svg" clip-path="url(#clip0_349_15793)">
<g id="g10">
<g id="g12">
<path id="path14" d="M24.5596 12C24.5596 5.3726 19.187 2.67029e-05 12.5596 2.67029e-05C5.93215 2.67029e-05 0.55957 5.3726 0.55957 12C0.55957 17.9896 4.9478 22.954 10.6846 23.8542V15.4688H7.6377V12H10.6846V9.35628C10.6846 6.34878 12.4761 4.68753 15.2171 4.68753C16.53 4.68753 17.9033 4.9219 17.9033 4.9219V7.87503H16.3901C14.8995 7.87503 14.4346 8.80003 14.4346 9.74902V12H17.7627L17.2307 15.4688H14.4346V23.8542C20.1713 22.954 24.5596 17.9896 24.5596 12Z" fill="#F2F3F3"/>
</g>
</g>
</g>
<defs>
<clipPath id="clip0_349_15793">
<rect width="24" height="24" fill="white" transform="translate(0.55957)"/>
</clipPath>
</defs>
</svg>
