<svg width="82" height="50" viewBox="0 0 82 50" fill="none" xmlns="http://www.w3.org/2000/svg">
<path d="M15.8961 0.0542483C15.8782 0.650977 15.781 1.21155 15.6037 1.73594C15.4442 2.24226 15.2049 2.69431 14.8859 3.09214C14.567 3.47188 14.1595 3.77928 13.6632 4.01436C13.1847 4.23135 12.6265 4.33985 11.9885 4.33985C11.0137 4.33985 9.99484 4.14095 8.93156 3.74312V17.0882H6.67209V2.79378C6.28213 2.64913 5.86586 2.53157 5.42274 2.44116C4.97969 2.35076 4.54553 2.30554 4.12022 2.30554C3.65947 2.30554 3.23416 2.38692 2.84428 2.54966C2.47213 2.71241 2.2772 3.07405 2.25947 3.63462H0C0 3.03789 0.106327 2.5135 0.318984 2.06143C0.54937 1.60935 0.850625 1.23867 1.22277 0.949342C1.59492 0.641945 2.02909 0.415893 2.52529 0.271241C3.0392 0.108496 3.58857 0.0271236 4.17338 0.0271236C5.05944 0.0271236 5.84805 0.135621 6.53918 0.352613C7.24812 0.551514 7.89487 0.777566 8.47967 1.03071C9.08228 1.28386 9.65805 1.51895 10.2075 1.73594C10.7745 1.93484 11.3593 2.0343 11.9619 2.0343C12.2987 2.0343 12.5733 1.99815 12.786 1.92581C12.9986 1.85347 13.1581 1.74497 13.2644 1.60032C13.3886 1.43758 13.4683 1.22961 13.5037 0.976465C13.5568 0.723317 13.5922 0.415893 13.61 0.0542483H15.8961ZM20.3273 17.0882H18.0146V0.0271236H20.3273V17.0882ZM41.6469 0.0542483V17.061H39.3608V2.76665C39.024 3.07405 38.7138 3.47188 38.4304 3.96011C38.1468 4.43025 37.8632 4.92754 37.5798 5.45193C37.2608 6.08482 36.9419 6.71773 36.6229 7.35062C36.3214 7.96544 35.9759 8.51695 35.5862 9.00518C35.214 9.49342 34.7797 9.89125 34.2836 10.1986C33.8052 10.4881 33.2204 10.6326 32.5292 10.6326C31.8381 10.6326 31.2533 10.4881 30.7748 10.1986C30.2963 9.90931 29.871 9.52957 29.4989 9.05943C29.1443 8.5712 28.8253 8.02872 28.5419 7.43199C28.2583 6.83526 27.9659 6.2295 27.6647 5.61468C27.3633 5.03604 27.0621 4.50259 26.7609 4.01436C26.4773 3.50804 26.1583 3.09214 25.804 2.76665V17.061H23.5179V0.0542483H25.7508C26.2646 0.235084 26.7165 0.497265 27.1065 0.840845C27.514 1.16633 27.8774 1.54607 28.1964 1.98006C28.5153 2.39595 28.7987 2.84803 29.047 3.33626C29.3128 3.8064 29.5696 4.27657 29.8179 4.74671C30.0837 5.28919 30.3139 5.78646 30.509 6.23853C30.7038 6.67252 30.8987 7.04322 31.0938 7.35062C31.2887 7.63995 31.4925 7.86597 31.7052 8.02872C31.9354 8.19146 32.2103 8.27284 32.5292 8.27284C32.8658 8.27284 33.1494 8.19146 33.3799 8.02872C33.6101 7.86597 33.8227 7.63995 34.0178 7.35062C34.2305 7.04322 34.4341 6.67252 34.6292 6.23853C34.8419 5.78646 35.0811 5.28919 35.3469 4.74671C35.5771 4.27657 35.8254 3.8064 36.0912 3.33626C36.357 2.84803 36.6494 2.39595 36.9684 1.98006C37.2874 1.54607 37.6418 1.16633 38.0317 0.840845C38.4392 0.497265 38.8999 0.235084 39.414 0.0542483H41.6469ZM55.6224 7.67611C56.5086 8.03775 57.1641 8.58929 57.5895 9.33067C58.0148 10.0541 58.2274 10.8496 58.2274 11.7176C58.2274 12.8026 58.0238 13.6887 57.616 14.3757C57.2263 15.0628 56.6947 15.6053 56.0211 16.0032C55.3656 16.4011 54.6123 16.6813 53.7616 16.844C52.911 16.9886 52.025 17.061 51.1034 17.061H45.601V2.73953H45.0161C44.8745 2.73953 44.7237 2.72144 44.5643 2.68528C44.4048 2.63103 44.2277 2.57679 44.0326 2.52254V0.271241C44.2099 0.307397 44.4048 0.343581 44.6174 0.379737C44.8479 0.415893 45.0693 0.433984 45.282 0.433984C45.6719 0.433984 46.0528 0.406862 46.425 0.352613C46.8149 0.298365 47.2049 0.271241 47.5946 0.271241C48.1441 0.198901 48.6935 0.13562 49.2427 0.0813719C49.7921 0.0271238 50.3682 0 50.9705 0C51.6616 0 52.344 0.0632806 53.0173 0.189869C53.6909 0.316456 54.2933 0.54248 54.8249 0.867969C55.3744 1.19346 55.8175 1.64553 56.154 2.22417C56.4908 2.80281 56.6591 3.54422 56.6591 4.44834C56.6591 5.06317 56.5618 5.56946 56.3667 5.96729C56.1718 6.34703 55.9592 6.67252 55.7287 6.94376L55.011 7.43199L55.6224 7.67611ZM55.9414 11.9888C55.9414 11.3921 55.7819 10.8949 55.4629 10.497C55.1617 10.0812 54.7717 9.75563 54.2933 9.52054C53.8326 9.28546 53.3188 9.12271 52.7515 9.03231C52.2023 8.92381 51.6707 8.86956 51.1566 8.86956H49.9072V6.56402H51.1566C51.8302 6.50977 52.3972 6.40128 52.8578 6.23853C53.3363 6.07579 53.7351 5.81358 54.054 5.45193C54.1428 5.36153 54.2226 5.23494 54.2933 5.0722C54.3821 4.90945 54.4262 4.68343 54.4262 4.3941C54.4262 4.33985 54.4174 4.2856 54.3996 4.23135C54.3821 4.1771 54.373 4.10476 54.373 4.01436C54.3199 3.68887 54.187 3.41763 53.9743 3.20064C53.7794 2.96555 53.5314 2.78475 53.23 2.65816C52.9466 2.53157 52.6186 2.44117 52.2465 2.38692C51.8921 2.33267 51.52 2.30554 51.13 2.30554C50.4745 2.30554 49.8719 2.35076 49.3224 2.44116C48.7908 2.5135 48.3035 2.55869 47.8604 2.57678V14.7826C48.0199 14.7826 48.206 14.7916 48.4186 14.8097C48.6491 14.8097 48.8884 14.8187 49.1364 14.8369C49.3846 14.855 49.6327 14.8729 49.8807 14.8911C50.1289 14.8911 50.3591 14.8911 50.5718 14.8911C51.2807 14.8911 51.9453 14.855 52.5654 14.7826C53.1859 14.6923 53.7351 14.5474 54.2135 14.3486C54.692 14.1316 55.082 13.8333 55.3831 13.4535C55.6846 13.0738 55.8707 12.5856 55.9414 11.9888ZM63.1589 0.0271236V11.6633C63.1589 12.2419 63.2918 12.7394 63.5576 13.1552C63.8413 13.571 64.2044 13.9236 64.6475 14.213C65.0906 14.5024 65.5957 14.7194 66.1627 14.864C66.7297 14.9906 67.3057 15.0538 67.8905 15.0538C68.44 15.0538 68.9716 14.9906 69.4854 14.864C70.0171 14.7373 70.4868 14.5385 70.8943 14.2673C71.3018 13.996 71.6298 13.6434 71.8778 13.2094C72.1258 12.7754 72.25 12.2601 72.25 11.6633V0.0271236H74.536V11.9888C74.536 12.875 74.3412 13.6523 73.9512 14.3215C73.5791 14.9907 73.074 15.551 72.436 16.0032C71.8159 16.4553 71.0982 16.7987 70.2829 17.0339C69.4676 17.2509 68.626 17.3594 67.7576 17.3594C66.8892 17.3594 66.0385 17.2419 65.2057 17.0068C64.3905 16.7716 63.6552 16.419 62.9994 15.9489C62.3615 15.4789 61.8476 14.8911 61.4577 14.1859C61.0677 13.4625 60.8729 12.6216 60.8729 11.6633V0.0271236H63.1589Z" fill="#860920"/>
<path d="M16.9062 31.8436C16.5518 32.8744 16.0112 33.8148 15.2847 34.6645C14.5582 35.5143 13.6719 36.2106 12.6265 36.7531C11.3859 37.3859 10.0834 37.7024 8.71891 37.7024C7.86828 37.7024 7.05301 37.5939 6.27336 37.377C5.49363 37.1418 4.76704 36.8163 4.09363 36.4005C3.42023 35.9665 2.80884 35.4511 2.25947 34.8544C1.72783 34.2577 1.27594 33.5796 0.90379 32.8201C0.602535 32.1873 0.372149 31.5363 0.212657 30.8672C0.0708951 30.198 0 29.5381 0 28.8871C0 28.0734 0.106327 27.2686 0.318984 26.4731C0.54937 25.6775 0.868356 24.936 1.27594 24.2489C1.68352 23.5437 2.18858 22.9109 2.79111 22.3502C3.39365 21.7717 4.0759 21.2834 4.83793 20.8855C6.11387 20.2527 7.4342 19.9362 8.79865 19.9362C9.63147 19.9362 10.4289 20.0536 11.191 20.2888C11.9707 20.5058 12.6974 20.8313 13.3708 21.2653C14.0441 21.6811 14.6467 22.1875 15.1783 22.7842C15.7278 23.3809 16.1885 24.059 16.5606 24.8185C16.7555 25.1983 16.9149 25.569 17.0391 25.9306C16.4011 25.9306 15.9139 25.9306 15.5771 25.9306C15.2403 25.9124 14.9923 25.9035 14.8328 25.9035C14.6733 25.9035 14.5757 25.9035 14.5404 25.9035C14.505 25.8853 14.4872 25.8764 14.4872 25.8764C13.9556 24.7553 13.1759 23.8781 12.148 23.2453C11.1379 22.6125 10.0214 22.296 8.79865 22.296C7.75318 22.296 6.77842 22.5311 5.87463 23.0012C5.30755 23.2906 4.8025 23.6522 4.35945 24.0862C3.93414 24.502 3.57085 24.9723 3.26959 25.4966C2.96834 26.003 2.73795 26.5455 2.57846 27.1241C2.41896 27.7026 2.33922 28.2904 2.33922 28.8871C2.33922 29.8818 2.56073 30.8401 3.00377 31.7623C3.53541 32.8833 4.30629 33.7605 5.31641 34.3933C6.34433 35.0261 7.47832 35.3426 8.71891 35.3426C9.67586 35.3426 10.6328 35.1075 11.5898 34.6374C12.2099 34.3301 12.7594 33.9322 13.2379 33.444C13.7163 32.9557 14.1063 32.4222 14.4075 31.8436H16.9062ZM21.7486 35.0714H30.0422V37.4312H19.436V20.3702H21.7486V35.0714Z" fill="#860920"/>
<path d="M44.3162 27.9831C44.3229 27.9831 44.3298 27.9831 44.3367 27.9831C46.5938 27.9831 48.4237 29.85 48.4237 32.1534C48.4237 34.4565 46.5938 36.3237 44.3367 36.3237H34.8004C32.2924 36.3237 30.2591 34.249 30.2591 31.6898C30.2591 29.2807 32.0611 27.3009 34.3647 27.0774M44.3162 27.9831C44.3298 27.8304 44.3367 27.6758 44.3367 27.5195C44.3367 24.7046 42.1001 22.4226 39.3414 22.4226C36.7287 22.4226 34.5846 24.4694 34.3647 27.0774M44.3162 27.9831C44.2235 29.0344 43.8176 29.9938 43.1947 30.7633L44.3162 27.9831ZM34.3647 27.0774C34.508 27.0633 34.6534 27.0562 34.8004 27.0562C35.8228 27.0562 36.7664 27.401 37.5253 27.9831" fill="#C93F38"/>
<path d="M51.9945 20.3702V32.0064C51.9945 32.5849 52.1274 33.0824 52.3932 33.4982C52.6768 33.914 53.0399 34.2666 53.4831 34.556C53.9262 34.8455 54.4312 35.0625 54.9982 35.207C55.5652 35.3337 56.1413 35.3969 56.7261 35.3969C57.2755 35.3969 57.8072 35.3337 58.321 35.207C58.8526 35.0804 59.3223 34.8815 59.7298 34.6103C60.1373 34.3391 60.4654 33.9864 60.7134 33.5525C60.9614 33.1185 61.0855 32.6031 61.0855 32.0064V20.3702H63.3716V32.3319C63.3716 33.218 63.1767 33.9954 62.7868 34.6645C62.4146 35.3337 61.9096 35.8941 61.2716 36.3462C60.6514 36.7984 59.9337 37.1418 59.1184 37.377C58.3032 37.5939 57.4616 37.7024 56.5932 37.7024C55.7247 37.7024 54.8741 37.585 54.0413 37.3498C53.226 37.1147 52.4907 36.762 51.835 36.292C51.197 35.8219 50.6832 35.2342 50.2932 34.5289C49.9033 33.8055 49.7084 32.9647 49.7084 32.0064V20.3702H51.9945ZM66.5558 37.377V20.4515C67.3533 20.3612 68.2305 20.2799 69.1875 20.2074C70.1444 20.1171 71.1367 20.0718 72.1646 20.0718C73.4584 20.0718 74.6987 20.2617 75.8861 20.6414C77.0735 21.0212 78.119 21.5818 79.0228 22.3231C79.9266 23.0644 80.6443 23.9777 81.176 25.0626C81.7254 26.1294 82 27.3682 82 28.7786C82 30.3337 81.7254 31.6719 81.176 32.793C80.6443 33.914 79.9088 34.8362 78.9697 35.5596C78.048 36.283 76.9672 36.8163 75.7266 37.16C74.5039 37.5036 73.1926 37.6753 71.7925 37.6753C71.314 37.6753 70.809 37.6664 70.2773 37.6482C69.7457 37.6482 69.2406 37.63 68.7621 37.5939C68.2837 37.5758 67.8496 37.5486 67.4596 37.5126C67.0697 37.4765 66.7685 37.4312 66.5558 37.377ZM68.8951 22.6757V35.1257C69.2672 35.216 69.7103 35.2884 70.2242 35.3426C70.738 35.3787 71.1899 35.3969 71.5798 35.3969C72.6609 35.3969 73.6886 35.2702 74.6634 35.0172C75.6381 34.7641 76.4975 34.3751 77.2418 33.8508C77.9861 33.3083 78.5797 32.6213 79.0228 31.7894C79.4659 30.9575 79.6874 29.9539 79.6874 28.7786C79.6874 27.6394 79.4481 26.6719 78.9697 25.8764C78.509 25.0808 77.8976 24.4298 77.1355 23.9234C76.3912 23.417 75.5493 23.0465 74.6102 22.8113C73.6886 22.5762 72.7673 22.4587 71.8457 22.4587C71.2787 22.4587 70.738 22.4858 70.2242 22.5401C69.7103 22.5762 69.2672 22.6215 68.8951 22.6757Z" fill="#860920"/>
<path d="M4.46119 46.3179V46.7586C4.48964 47.0903 4.575 47.3794 4.71726 47.6258C4.869 47.8722 5.05868 48.0807 5.2863 48.2514C5.51392 48.4125 5.76524 48.5357 6.04028 48.621C6.3248 48.7063 6.60933 48.7489 6.89385 48.7489C7.18786 48.7489 7.47238 48.7158 7.74742 48.6494C8.02245 48.5736 8.26904 48.4646 8.48717 48.3224C8.70531 48.1803 8.88076 48.0049 9.01354 47.7964C9.14631 47.5879 9.2127 47.3462 9.2127 47.0714C9.2127 46.7681 9.12735 46.5311 8.95664 46.3605C8.79541 46.1899 8.58201 46.062 8.31646 45.9767C8.05091 45.8819 7.74742 45.8156 7.40599 45.7777C7.06456 45.7397 6.71365 45.6971 6.35326 45.6497C5.99286 45.6023 5.64195 45.5407 5.30053 45.4649C4.9591 45.3796 4.65561 45.2469 4.39006 45.0668C4.1245 44.8773 3.90637 44.6309 3.73566 44.3276C3.57443 44.0148 3.49381 43.612 3.49381 43.1192C3.49381 42.6927 3.58392 42.323 3.76411 42.0103C3.95379 41.688 4.20038 41.4227 4.50387 41.2141C4.81684 40.9962 5.16775 40.835 5.5566 40.7308C5.94545 40.6265 6.34377 40.5744 6.75159 40.5744C7.1594 40.5744 7.55773 40.6265 7.94658 40.7308C8.33543 40.835 8.6816 40.9962 8.98509 41.2141C9.29806 41.4227 9.54939 41.688 9.73907 42.0103C9.92875 42.323 10.0283 42.6927 10.0378 43.1192V43.4177H8.81437V43.1192C8.77644 42.8917 8.68633 42.6974 8.54407 42.5363C8.40181 42.3657 8.23111 42.2235 8.03194 42.1098C7.83278 41.9961 7.6099 41.9107 7.36331 41.8539C7.12621 41.797 6.88437 41.7686 6.63778 41.7686C6.3912 41.7686 6.14935 41.797 5.91225 41.8539C5.68464 41.9107 5.48072 41.9961 5.30053 42.1098C5.12981 42.2235 4.98756 42.3657 4.87375 42.5363C4.76942 42.6974 4.71726 42.8917 4.71726 43.1192C4.71726 43.4224 4.79787 43.6594 4.9591 43.83C5.12981 43.9911 5.34795 44.1191 5.6135 44.2138C5.87906 44.2991 6.18255 44.3607 6.52397 44.3987C6.87488 44.4366 7.22579 44.484 7.5767 44.5408C7.9371 44.5882 8.28801 44.6546 8.62943 44.7399C8.98034 44.8252 9.28858 44.9626 9.55413 45.1521C9.81968 45.3322 10.0331 45.5739 10.1943 45.8772C10.365 46.1805 10.4504 46.5785 10.4504 47.0714C10.4504 47.6021 10.3555 48.0523 10.1659 48.4219C9.97617 48.7916 9.72484 49.0949 9.41187 49.3318C9.09889 49.5593 8.7385 49.7251 8.33068 49.8294C7.93235 49.9431 7.52454 50 7.10724 50C5.86483 50 4.9022 49.6777 4.21934 49.0333C3.54598 48.3793 3.20929 47.4742 3.20929 46.3179H4.46119ZM19.4033 40.8587V49.801H18.1657V45.8203H12.9731V49.801H11.7355V40.8587H12.9731V44.5693H18.1657V40.8587H19.4033ZM25.338 49.9573C24.6931 49.9573 24.0861 49.8389 23.517 49.6019C22.9575 49.3555 22.469 49.0238 22.0517 48.6068C21.6344 48.1803 21.3025 47.6874 21.0559 47.1282C20.8093 46.5691 20.686 45.9672 20.686 45.3227C20.686 44.6877 20.8093 44.0906 21.0559 43.5314C21.3025 42.9723 21.6344 42.4841 22.0517 42.0671C22.469 41.6406 22.9575 41.3089 23.517 41.072C24.0861 40.8256 24.6931 40.7023 25.338 40.7023C25.9829 40.7023 26.5899 40.8256 27.1589 41.072C27.728 41.3089 28.2211 41.6406 28.6384 42.0671C29.0652 42.4841 29.4019 42.9723 29.6485 43.5314C29.8951 44.0906 30.0184 44.6877 30.0184 45.3227C30.0184 45.9672 29.8951 46.5691 29.6485 47.1282C29.4019 47.6874 29.0652 48.1803 28.6384 48.6068C28.2211 49.0238 27.728 49.3555 27.1589 49.6019C26.5899 49.8389 25.9829 49.9573 25.338 49.9573ZM25.338 41.9392C24.8638 41.9392 24.418 42.0292 24.0007 42.2093C23.5929 42.3894 23.2325 42.6311 22.9195 42.9343C22.6161 43.2376 22.3742 43.5978 22.194 44.0148C22.0138 44.4223 21.9237 44.8583 21.9237 45.3227C21.9237 45.7966 22.0138 46.2421 22.194 46.6591C22.3742 47.0666 22.6161 47.422 22.9195 47.7253C23.2325 48.0286 23.5929 48.2703 24.0007 48.4504C24.418 48.6305 24.8638 48.7205 25.338 48.7205C25.8217 48.7205 26.2722 48.6305 26.6895 48.4504C27.1068 48.2703 27.4672 48.0286 27.7706 47.7253C28.0836 47.422 28.3255 47.0666 28.4962 46.6591C28.6764 46.2421 28.7665 45.7966 28.7665 45.3227C28.7665 44.8583 28.6764 44.4223 28.4962 44.0148C28.3255 43.5978 28.0836 43.2376 27.7706 42.9343C27.4672 42.6311 27.1068 42.3894 26.6895 42.2093C26.2722 42.0292 25.8217 41.9392 25.338 41.9392ZM35.3792 40.7876C36.4604 40.854 37.2618 41.1904 37.7834 41.797C38.3145 42.4036 38.5801 43.2234 38.5801 44.2565C38.5801 44.683 38.4853 45.0811 38.2956 45.4507C38.1154 45.8108 37.8641 46.1283 37.5416 46.4032C37.2286 46.678 36.8587 46.896 36.432 47.0572C36.0147 47.2088 35.5737 47.2846 35.1089 47.2846H33.1457V49.801H31.8938V42.2804C31.7326 42.2709 31.5809 42.2567 31.4386 42.2377C31.2963 42.2188 31.1541 42.1809 31.0118 42.124V40.9298C31.2015 40.9772 31.3959 41.0104 31.5951 41.0293C31.8037 41.0483 31.9934 41.0578 32.1641 41.0578C32.4107 41.0578 32.6478 41.0435 32.8754 41.0151C33.1125 40.9867 33.3496 40.9582 33.5867 40.9298C33.8333 40.8824 34.0752 40.8492 34.3123 40.8303C34.5494 40.8019 34.8054 40.7876 35.0805 40.7876H35.3792ZM37.4562 44.1854C37.4562 43.9295 37.4325 43.6783 37.3851 43.4319C37.3377 43.176 37.2381 42.9486 37.0864 42.7495C36.9346 42.5505 36.7165 42.3846 36.432 42.252C36.1474 42.1193 35.7681 42.0387 35.2939 42.0103C35.0283 42.0103 34.7106 42.0197 34.3407 42.0387C33.9803 42.0577 33.582 42.1193 33.1457 42.2235V46.0478H35.1089C35.4219 46.0478 35.7159 46.0051 35.9909 45.9198C36.266 45.8345 36.5078 45.7113 36.7165 45.5502C36.9346 45.3796 37.1053 45.1806 37.2286 44.9531C37.3614 44.7256 37.4373 44.4697 37.4562 44.1854Z" fill="#C93F38"/>
<path d="M27.1452 44.2337C27.1476 44.2337 27.1501 44.2337 27.1526 44.2337C27.964 44.2337 28.6218 44.9039 28.6218 45.7307C28.6218 46.5575 27.964 47.2277 27.1526 47.2277H23.7244C22.8228 47.2277 22.0918 46.483 22.0918 45.5643C22.0918 44.6995 22.7396 43.9888 23.5678 43.9086M27.1452 44.2337C27.1501 44.1789 27.1526 44.1234 27.1526 44.0673C27.1526 43.0569 26.3486 42.2377 25.3568 42.2377C24.4176 42.2377 23.6468 42.9724 23.5678 43.9086M27.1452 44.2337C27.1119 44.6111 26.966 44.9555 26.7421 45.2317L27.1452 44.2337ZM23.5678 43.9086C23.6193 43.9036 23.6715 43.901 23.7244 43.901C24.0919 43.901 24.4311 44.0248 24.704 44.2337" fill="#C93F38"/>
</svg>
